<?xml version="1.0" encoding="utf-8"?>
<!-- Generator: Adobe Illustrator 23.0.1, SVG Export Plug-In . SVG Version: 6.00 Build 0)  -->
<svg version="1.1" id="Layer_1" xmlns="http://www.w3.org/2000/svg" xmlns:xlink="http://www.w3.org/1999/xlink" x="0px" y="0px"
	 viewBox="0 0 181 209" style="enable-background:new 0 0 181 209;" xml:space="preserve">
<style type="text/css">
	.st0{fill:#DBBE14;stroke:#99A5AB;stroke-width:10.6698;stroke-linecap:round;stroke-linejoin:round;stroke-miterlimit:10;}
	.st1{fill:#FFFFFF;}
	.st2{font-family:'Courier';}
	.st3{font-size:36px;}
	.st4{fill:#242424;}
	.st5{fill:#FFD464;}
	.st6{fill:#F2C95F;}
	.st7{fill:#263740;}
	.st8{fill:#1E2C33;}
	.st9{fill:#FFC066;}
	.st10{fill:#F2B661;}
	.st11{fill:#E6AD5C;}
	.st12{fill:#FFD599;}
</style>
<g id="surface2602">
	<path class="st0" d="M6.7,152.9l83.8,48.4l83.8-48.4V56.1L90.5,7.7L6.7,56.1V152.9z"/>
	<text transform="matrix(1 0 0 1 36.2593 68.2241)" class="st1 st2 st3">swaRm</text>
</g>
<g>
	<path class="st4" d="M118.7,121.5c-0.4-1.5,0.4-3.1,1.9-3.6c10.3-3,17.7-0.7,19.7,6.2c0.4,1.5-0.4,3.1-1.9,3.6
		c-1.5,0.4-3.1-0.4-3.6-2c-1.5-5-9.3-3.3-12.6-2.3C120.7,123.9,119.1,123,118.7,121.5z"/>
	<path class="st4" d="M112.3,99.4c-0.4-1.5,0.4-3.1,1.9-3.6c3.3-1,10.9-3.8,9.4-8.7c-0.4-1.5,0.4-3.1,1.9-3.6c1.5-0.4,3.1,0.4,3.6,2
		c2,6.9-3,12.8-13.3,15.8C114.3,101.8,112.7,101,112.3,99.4z"/>
	<path class="st5" d="M41.2,132.2c-2.8-9.7,3.9-22.1,13.6-24.9l46.9,7.2l-35.7,31.3C56.3,148.6,44,141.9,41.2,132.2z"/>
	<path class="st6" d="M101.7,114.5l-6.4-1l-30.8,27.1c-8.8,2.6-19.8-2.8-23.9-11.1c0.1,0.9,0.3,1.8,0.5,2.7
		c2.8,9.7,15.2,16.5,24.9,13.6L101.7,114.5z"/>
	<polygon class="st4" points="70.4,109.7 77.9,135.4 82.7,131.2 76.7,110.6 	"/>
	<polygon class="st4" points="61.1,108.2 70.8,141.6 75.6,137.4 67.3,109.2 	"/>
	<path class="st4" d="M54.8,107.3c-0.9,0.3-1.8,0.6-2.7,1.1l11.1,38c1-0.1,1.9-0.3,2.8-0.5l2.4-2.1l-10.5-36L54.8,107.3z"/>
	<path class="st4" d="M45,114.5l8.9,30.5c2.1,0.8,4.2,1.3,6.4,1.4l-10.7-36.6C47.8,111.1,46.3,112.7,45,114.5z"/>
	<path class="st7" d="M105.7,128.2c-0.4-1.5-7.6-26-8-27.5c-0.4-1.5,0.4-3.1,1.9-3.6c5.4-1.6,22-6.4,26.8,10.1
		c4.8,16.5-11.8,21.4-17.2,22.9C107.8,130.6,106.2,129.8,105.7,128.2z"/>
	<path class="st8" d="M126.5,107.2c-0.2-0.7-0.5-1.4-0.7-2c2.3,14.3-12.7,18.6-17.8,20.1c-1.5,0.4-3.1-0.4-3.6-2
		c-0.3-1.2-4.6-15.8-6.8-23.3c0,0.2,0,0.4,0.1,0.6c0.4,1.5,7.6,26,8,27.5c0.4,1.5,2,2.4,3.6,2C114.7,128.6,131.3,123.8,126.5,107.2z
		"/>
	<path class="st9" d="M112.8,111.2c-4.7-16.1-36.5-25.2-50.9-21c-10.1,3-11.8,11.8-9.8,18.4c3.1,10.6,17.8,11.9,32.4,10.9
		c-12.8,6.9-24.5,16-21.4,26.6c1.9,6.7,8,13.2,18.2,10.2C95.6,152.1,117.5,127.3,112.8,111.2z"/>
	<path class="st10" d="M112.8,111.2l-28.4,8.3c-12.8,6.9-24.5,16-21.4,26.6c1.9,6.7,8,13.2,18.2,10.2
		C95.6,152.1,117.5,127.3,112.8,111.2z"/>
	<path class="st11" d="M81.1,156.3c14.4-4.3,36.3-29,31.6-45.1c-0.2-0.8-0.6-1.6-0.9-2.4c1.9,16-18.4,38.6-32.2,42.6
		c-8.2,2.4-14.2-2.6-17.1-7.7c0.1,0.8,0.2,1.6,0.4,2.4C64.9,152.7,71,159.3,81.1,156.3z"/>
	<path class="st4" d="M42.9,117.8c-2.3,4.5-3.1,9.7-1.8,14.4c1.4,4.6,4.9,8.6,9.2,11.1L42.9,117.8z"/>
	<path class="st11" d="M51.4,105.2c0.1,1.2,0.3,2.4,0.6,3.5c3.1,10.6,17.8,11.9,32.4,10.9C75.7,118.4,57,113.2,51.4,105.2z"/>
	<path class="st12" d="M62.1,95.3c-0.2-0.6,0.2-1.3,0.8-1.5c8.9-2.6,24.9,0.5,35.8,6.9c0.6,0.3,0.8,1.1,0.4,1.7
		c-0.3,0.6-1.1,0.8-1.7,0.4c-10.1-6-25.6-9-33.8-6.6C63,96.3,62.3,95.9,62.1,95.3z"/>
</g>
</svg>
